<svg width="48" height="48" xmlns="http://www.w3.org/2000/svg">

 <g>
  <title>background</title>
  <rect fill="none" id="canvas_background" height="402" width="582" y="-1" x="-1"/>
 </g>
 <g>
  <title>Layer 1</title>
  <path id="svg_1" fill="none" d="m0,0l48,0l0,48l-48,0l0,-48z"/>
  <path fill="#333333" id="svg_2" d="m34.42,18l-8.76,-13.11c-0.38,-0.58 -1.02,-0.85 -1.66,-0.85c-0.64,0 -1.28,0.28 -1.66,0.85l-8.76,13.11l-9.58,0c-1.1,0 -2,0.9 -2,2c0,0.19 0.03,0.37 0.07,0.54l5.07,18.54c0.47,1.68 2.02,2.92 3.86,2.92l26,0c1.84,0 3.39,-1.24 3.85,-2.93l5.07,-18.54c0.05,-0.16 0.08,-0.34 0.08,-0.53c0,-1.1 -0.9,-2 -2,-2l-9.58,0zm-16.42,0l6,-8.8l6,8.8l-12,0zm6,16c-2.21,0 -4,-1.79 -4,-4s1.79,-4 4,-4s4,1.79 4,4s-1.79,4 -4,4z"/>
 </g>
</svg>