<svg width="512" height="512" xmlns="http://www.w3.org/2000/svg">

 <g>
  <title>background</title>
  <rect fill="none" id="canvas_background" height="402" width="582" y="-1" x="-1"/>
 </g>
 <g>
  <title>Layer 1</title>
  <path fill="#333333" id="svg_1" d="m341,128l0,-29c0,-19.1 -14.5,-35 -34.5,-35l-101.1,0c-19.9,0 -34.4,15.9 -34.4,35l0,29l-91,0l0,32l9.2,0c0,0 5.4,0.6 8.2,3.4c2.8,2.8 3.9,9 3.9,9l19,241.7c1.5,29.4 1.5,33.9 36,33.9l199.4,0c34.5,0 34.5,-4.4 36,-33.8l19,-241.6c0,0 1.1,-6.3 3.9,-9.1c2.8,-2.8 8.2,-3.4 8.2,-3.4l9.2,0l0,-32l-91,0l0,-0.1zm-149,-29c0,-9.6 7.8,-15 17.7,-15l91.7,0c9.9,0 18.6,5.5 18.6,15l0,29l-128,0l0,-29zm-8.5,285l-10.3,-192l20.3,0l10.5,192l-20.5,0zm83.6,0l-22,0l0,-192l22,0l0,192zm61.6,0l-20.4,0l10.5,-192l20.3,0l-10.4,192z"/>
 </g>
</svg>