<svg width="8.4666665" height="8.4666669" xmlns="http://www.w3.org/2000/svg">

 <g>
  <title>background</title>
  <rect fill="none" id="canvas_background" height="402" width="582" y="-1" x="-1"/>
 </g>
 <g>
  <title>Layer 1</title>
  <path clip-rule="nonzero" fill="#4c4c4c" fill-rule="nonzero" stroke-width="2" stroke-linecap="round" stroke-linejoin="round" stroke-miterlimit="4" stroke-dashoffset="0" id="rect965" d="m4.232299,2.548676l-3.173965,2.721798l0,2.667021c0.000016,0.146119 0.118465,0.26457 0.264583,0.264583l1.5875,0c0.146119,-0.000013 0.26457,-0.118465 0.264583,-0.264583l0,-2.910417l2.116667,0l0,2.910417c0.000013,0.146119 0.118465,0.26457 0.264583,0.264583l1.5875,0c0.146119,-0.000013 0.26457,-0.118465 0.264583,-0.264583l0,-2.667021l-3.176034,-2.721798z"/>
  <path clip-rule="nonzero" fill="#333333" fill-rule="nonzero" stroke-width="2" stroke-linejoin="round" stroke-miterlimit="4" stroke-dashoffset="0" id="path984" d="m4.060735,0.328139l-3.703135,3.175519c-0.059431,0.050104 -0.093824,0.123804 -0.094051,0.201538l0,1.321882c-0.001199,0.227277 0.265792,0.35021 0.4377,0.201538l3.53105,-3.027722l3.533119,3.027722c0.171815,0.145529 0.435311,0.023625 0.435631,-0.201538l0,-1.321882c0.000423,-0.077317 -0.032996,-0.15095 -0.091466,-0.201538l-3.703132,-3.175519c-0.097697,-0.083775 -0.248142,-0.083669 -0.345715,0z"/>
 </g>
</svg>