<svg width="512" height="512" xmlns="http://www.w3.org/2000/svg">

 <g>
  <title>background</title>
  <rect fill="none" id="canvas_background" height="402" width="582" y="-1" x="-1"/>
 </g>
 <g>
  <title>Layer 1</title>
  <path fill="#cccccc" id="svg_1" d="m417.4,224l-129.4,0l0,-129.4c0,-16.9 -14.3,-30.6 -32,-30.6c-17.7,0 -32,13.7 -32,30.6l0,129.4l-129.4,0c-16.9,0 -30.6,14.3 -30.6,32c0,17.7 13.7,32 30.6,32l129.4,0l0,129.4c0,16.9 14.3,30.6 32,30.6c17.7,0 32,-13.7 32,-30.6l0,-129.4l129.4,0c16.9,0 30.6,-14.3 30.6,-32c0,-17.7 -13.7,-32 -30.6,-32z"/>
 </g>
</svg>